<svg width="101" height="15" viewBox="0 0 101 15" fill="none" xmlns="http://www.w3.org/2000/svg">
<path d="M0 13.8117H2.76234V10.0988L4.12118 8.44012L7.7001 13.8117H11.0047L6.09883 6.59644L10.9473 0.746406H7.6363L2.93459 6.50712H2.76234V0.746406H0V13.8117Z" fill="#FF577F"/>
<path d="M16.4405 14.0031C18.8647 14.0031 20.4979 12.8229 20.8807 11.0047L18.3671 10.8388C18.0928 11.5852 17.3911 11.9744 16.4852 11.9744C15.1263 11.9744 14.2651 11.0749 14.2651 9.61396V9.60758H20.9381V8.86117C20.9381 5.53106 18.9221 3.88514 16.3321 3.88514C13.4485 3.88514 11.5793 5.93297 11.5793 8.95686C11.5793 12.0637 13.423 14.0031 16.4405 14.0031ZM14.2651 7.92338C14.3225 6.80696 15.171 5.91383 16.3767 5.91383C17.5569 5.91383 18.3735 6.75593 18.3799 7.92338H14.2651Z" fill="#FF577F"/>
<path d="M25.7886 8.14666C25.7949 6.88352 26.5477 6.14349 27.645 6.14349C28.7359 6.14349 29.393 6.858 29.3866 8.05735V13.8117H32.1043V7.57251C32.1043 5.28863 30.7646 3.88514 28.7231 3.88514C27.2686 3.88514 26.216 4.59964 25.7758 5.74158H25.661V4.01273H23.0709V13.8117H25.7886V8.14666Z" fill="#FF577F"/>
<path d="M34.5545 13.8117H42.7905V11.6426H38.1206V11.5725L42.6246 5.77986V4.01273H34.7204V6.18177H39.3519V6.25194L34.5545 12.1913V13.8117Z" fill="#FF577F"/>
<path d="M45.2279 13.8117H47.9456V4.01273H45.2279V13.8117ZM46.5931 2.74958C47.4033 2.74958 48.0668 2.13076 48.0668 1.3716C48.0668 0.618815 47.4033 0 46.5931 0C45.7893 0 45.1258 0.618815 45.1258 1.3716C45.1258 2.13076 45.7893 2.74958 46.5931 2.74958Z" fill="#FF577F"/>
<path d="M54.9476 14.0031C57.3718 14.0031 59.0049 12.8229 59.3877 11.0047L56.8742 10.8388C56.5999 11.5852 55.8981 11.9744 54.9922 11.9744C53.6334 11.9744 52.7721 11.0749 52.7721 9.61396V9.60758H59.4451V8.86117C59.4451 5.53106 57.4292 3.88514 54.8391 3.88514C51.9556 3.88514 50.0864 5.93297 50.0864 8.95686C50.0864 12.0637 51.93 14.0031 54.9476 14.0031ZM52.7721 7.92338C52.8296 6.80696 53.678 5.91383 54.8838 5.91383C56.064 5.91383 56.8806 6.75593 56.8869 7.92338H52.7721Z" fill="#FF577F"/>
<path d="M66.1461 13.8117H68.9085V8.4146H74.5161V13.8117H77.272V0.746406H74.5161V6.13711H68.9085V0.746406H66.1461V13.8117Z" fill="#FF577F"/>
<path d="M86.1416 9.63947C86.148 10.9537 85.2485 11.6426 84.2724 11.6426C83.2453 11.6426 82.5818 10.9218 82.5755 9.76707V4.01273H79.8578V10.2519C79.8642 12.5422 81.2039 13.9393 83.1751 13.9393C84.6488 13.9393 85.7078 13.1801 86.148 12.0318H86.2501V13.8117H88.8593V4.01273H86.1416V9.63947Z" fill="#FF577F"/>
<path d="M91.4435 13.8117H94.1229V12.2423H94.2441C94.6205 13.0589 95.4434 13.9712 97.0256 13.9712C99.2584 13.9712 101 12.204 101 8.92497C101 5.55657 99.1818 3.88514 97.0319 3.88514C95.3924 3.88514 94.6077 4.8612 94.2441 5.65865H94.1611V0.746406H91.4435V13.8117ZM94.1037 8.91221C94.1037 7.16422 94.8438 6.0478 96.1643 6.0478C97.5104 6.0478 98.2249 7.21525 98.2249 8.91221C98.2249 10.6219 97.4976 11.8085 96.1643 11.8085C94.8565 11.8085 94.1037 10.6602 94.1037 8.91221Z" fill="#FF577F"/>
</svg>
